<?xml version="1.0" encoding="UTF-8"?>
<!DOCTYPE svg PUBLIC "-//W3C//DTD SVG 1.1//EN" "http://www.w3.org/Graphics/SVG/1.1/DTD/svg11.dtd">
<!-- Creator: CorelDRAW -->
<svg xmlns="http://www.w3.org/2000/svg" xml:space="preserve" width="110mm" height="60mm" version="1.1" style="shape-rendering:geometricPrecision; text-rendering:geometricPrecision; image-rendering:optimizeQuality; fill-rule:evenodd; clip-rule:evenodd"
viewBox="0 0 11000 6000"
 xmlns:xlink="http://www.w3.org/1999/xlink"
 xmlns:xodm="http://www.corel.com/coreldraw/odm/2003">
 <defs>
  <style type="text/css">
   <![CDATA[
    .fil0 {fill:#AB6257;fill-rule:nonzero}
   ]]>
  </style>
 </defs>
 <g id="Capa_x0020_1">
  <metadata id="CorelCorpID_0Corel-Layer"/>
  <path class="fil0" d="M3961.38 2225.68l-81.01 0 0 -643.27 81.01 0 0 643.27zm-80.94 -2112.49l293.16 0 0 804 494.55 0 0 232.47 -787.71 0 0 -1036.47zm-1993.12 4670.77l1550.85 -1033.04 0 -2909.22 -576.84 0 0 2600.36 -974.01 648.8 0 693.1zm-158.17 856.47l82.31 278.44 82.3 -278.44 255.09 138.69 -138.69 -255.09 278.44 -82.31 -278.44 -82.31 138.69 -255.08 -255.09 138.7 -82.3 -278.45 -82.31 278.45 -255.1 -138.7 138.7 255.08 -278.46 82.31 278.46 82.31 -138.7 255.09 255.1 -138.69zm322.58 -3834.2l665.6 0 0 576.84 -665.6 0 0 1367.85 -576.84 0 0 -3637.79 576.84 0 0 1693.1zm151.74 -1116.26l0 -576.84 1234.7 0 0 576.84 -1234.7 0zm-2018.74 -576.84l576.83 0 0 3328.93 974.02 648.8 0 693.1 -1550.85 -1033.04 0 -3637.79zm5002.18 1057.27c-154,0 -273.68,-41.96 -359.08,-125.87 -85.38,-83.9 -128.07,-202.84 -128.07,-356.84l0 -574.5 293.17 0 0 565.62c0,165.84 65.64,248.75 196.92,248.75 130.32,0 195.45,-82.91 195.45,-248.75l0 -565.62 288.74 0 0 574.5c0,154 -42.7,272.94 -128.08,356.84 -85.39,83.91 -205.07,125.87 -359.05,125.87zm1137.67 0c-108.6,0 -206.07,-22.97 -292.45,-68.85 -86.36,-45.91 -154.23,-109.82 -203.57,-191.75 -49.36,-81.93 -74.04,-174.73 -74.04,-278.37 0,-103.64 24.68,-196.44 74.04,-278.37 49.34,-81.93 117.21,-145.85 203.57,-191.75 86.38,-45.89 183.85,-68.85 292.45,-68.85 94.76,0 180.14,16.79 256.14,50.34 76.01,33.56 139.19,81.94 189.54,145.13l-186.58 168.77c-67.12,-80.93 -148.56,-121.41 -244.3,-121.41 -56.28,0 -106.37,12.34 -150.3,37.01 -43.92,24.69 -77.97,59.48 -102.16,104.39 -24.18,44.92 -36.27,96.49 -36.27,154.74 0,58.24 12.09,109.81 36.27,154.73 24.19,44.91 58.24,79.7 102.16,104.38 43.93,24.68 94.02,37.02 150.3,37.02 95.74,0 177.18,-40.48 244.3,-121.41l186.58 168.79c-50.35,63.18 -113.53,111.54 -189.54,145.11 -76,33.57 -161.38,50.35 -256.14,50.35zm1343.47 -247.28l0 226.54 -832.14 0 0 -1036.47 812.89 0 0 226.55 -522.67 0 0 174.72 460.48 0 0 219.13 -460.48 0 0 189.53 541.92 0zm551.33 -48.86l-159.92 0 0 275.4 -293.16 0 0 -1036.47 473.82 0c93.76,0 175.21,15.56 244.3,46.65 69.1,31.09 122.41,75.5 159.91,133.26 37.51,57.74 56.26,125.61 56.26,203.59 0,75.01 -17.52,140.42 -52.56,196.18 -35.04,55.78 -85.14,99.45 -150.29,131.05l223.59 325.74 -313.91 0 -188.04 -275.4zm185.08 -377.57c0,-48.37 -15.29,-85.88 -45.89,-112.54 -30.61,-26.63 -76.03,-39.98 -136.24,-39.98l-162.87 0 0 303.54 162.87 0c60.21,0 105.63,-13.07 136.24,-39.23 30.6,-26.16 45.89,-63.43 45.89,-111.79zm915.57 673.71c-109.57,0 -208.03,-23.21 -295.39,-69.6 -87.37,-46.39 -155.96,-110.56 -205.82,-192.49 -49.85,-81.93 -74.78,-174.22 -74.78,-276.88 0,-102.66 24.93,-194.96 74.78,-276.89 49.86,-81.93 118.45,-146.09 205.82,-192.49 87.36,-46.39 185.82,-69.59 295.39,-69.59 109.57,0 208.04,23.2 295.39,69.59 87.37,46.4 155.97,110.56 205.82,192.49 49.85,81.93 74.77,174.23 74.77,276.89 0,102.66 -24.92,194.95 -74.77,276.88 -49.85,81.93 -118.45,146.1 -205.82,192.49 -87.35,46.39 -185.82,69.6 -295.39,69.6zm0 -242.84c52.32,0 99.7,-12.34 142.15,-37.02 42.44,-24.68 76,-59.47 100.68,-104.38 24.68,-44.92 37.02,-96.49 37.02,-154.73 0,-58.25 -12.34,-109.82 -37.02,-154.74 -24.68,-44.91 -58.24,-79.7 -100.68,-104.39 -42.45,-24.67 -89.83,-37.01 -142.15,-37.01 -52.31,0 -99.7,12.34 -142.14,37.01 -42.45,24.69 -76.01,59.48 -100.69,104.39 -24.67,44.92 -37.01,96.49 -37.01,154.74 0,58.24 12.34,109.81 37.01,154.73 24.68,44.91 58.24,79.7 100.69,104.38 42.44,24.68 89.83,37.02 142.14,37.02zm1029.58 242.84c-83.9,0 -165.34,-10.38 -244.3,-31.1 -78.98,-20.74 -143.14,-48.37 -192.49,-82.92l96.24 -216.18c46.39,30.6 100.19,55.28 161.39,74.04 61.21,18.74 121.41,28.13 180.64,28.13 112.53,0 168.81,-28.13 168.81,-84.4 0,-29.61 -16.05,-51.57 -48.14,-65.89 -32.09,-14.31 -83.65,-29.37 -154.72,-45.16 -77.98,-16.79 -143.14,-34.8 -195.46,-54.05 -52.31,-19.25 -97.22,-50.1 -134.73,-92.54 -37.5,-42.44 -56.26,-99.7 -56.26,-171.76 0,-63.17 17.26,-120.18 51.82,-171.01 34.55,-50.83 86.12,-91.07 154.73,-120.68 68.6,-29.62 152.75,-44.42 252.45,-44.42 68.11,0 135.23,7.65 201.37,22.96 66.13,15.29 124.38,37.74 174.72,67.37l-90.32 217.66c-98.71,-53.31 -194.46,-79.96 -287.25,-79.96 -58.25,0 -100.68,8.63 -127.34,25.91 -26.65,17.27 -39.97,39.72 -39.97,67.37 0,27.64 15.79,48.37 47.38,62.19 31.59,13.81 82.42,28.13 152.5,42.94 78.98,16.77 144.37,34.79 196.2,54.05 51.82,19.24 96.73,49.84 134.74,91.79 38,41.94 57,98.96 57,171.02 0,62.19 -17.28,118.46 -51.83,168.79 -34.54,50.35 -86.37,90.57 -155.46,120.68 -69.1,30.1 -153.01,45.17 -251.72,45.17zm-5860.68 1055.28l-69.45 0 0 -305.73c0,-43.87 -9.64,-74.9 -28.76,-92.74 -19.14,-17.84 -42.28,-26.85 -69.61,-26.85 -37.61,0 -69.11,15.11 -94.67,45.33 -25.56,30.07 -38.42,69.92 -38.42,119.28l0 260.71 -73.28 0 0 -475.46 68.46 0 0 87.77c38.58,-67.52 88.57,-101.28 149.98,-101.28 35.51,0 65.73,9.17 90.64,27.5 24.92,18.48 41.97,39.05 51.29,62.03 9.15,22.83 13.82,64.31 13.82,124.26l0 275.18zm364.55 -50.15l0 58.83c-26.2,3.22 -48.86,4.83 -68,4.83 -92.26,0 -138.38,-48.07 -138.38,-144.35l0 -286.76 -83.91 0 0 -57.86 83.91 0 2.89 -119.75 70.4 -6.59 0 126.34 106.09 0 0 57.86 -106.09 0 0 298.81c0,49.02 25.24,73.47 75.87,73.47 16.88,0 36,-1.62 57.22,-4.83zm378.54 -90.66l68.48 14.14c-12.54,40.51 -37.14,73.95 -73.47,100.47 -36.48,26.53 -79.4,39.71 -128.75,39.71 -65.1,0 -117.65,-22.82 -158,-68.64 -40.19,-45.81 -60.27,-105.77 -60.27,-180.03 0,-75.71 20.89,-137.11 62.68,-183.72 41.8,-46.77 94.19,-70.09 157.37,-70.09 62.04,0 112.19,21.55 149.96,64.78 37.77,43.08 57.23,107.7 58.19,193.7l-346.23 0c0,71.85 15.11,120.38 45.33,145.63 30.38,25.07 62.37,37.61 96.12,37.61 60.76,0 103.67,-31.19 128.59,-93.56zm-4.82 -144.66c-0.64,-26.84 -4.98,-50.63 -13.19,-71.36 -8.19,-20.9 -22.18,-38.59 -41.62,-53.21 -19.61,-14.63 -43.08,-22.02 -70.41,-22.02 -36.97,0 -68.15,13.18 -93.87,39.7 -25.72,26.52 -40.03,62.04 -43.24,106.89l262.33 0zm265.7 285.47l-73.3 0 0 -475.46 64.62 0 0 110.9c22.99,-52.07 46.13,-85.83 69.27,-101.25 23.15,-15.44 46.95,-23.16 71.21,-23.16 7.57,0 17.36,0.64 29.26,1.93l0 70.41 -15.12 0c-41.14,0 -75.22,15.1 -102.38,45.49 -27.16,30.37 -41.64,70.24 -43.56,119.59l0 251.55zm618.84 0l-69.43 0 0 -305.73c0,-43.87 -9.65,-74.9 -28.78,-92.74 -19.13,-17.84 -42.28,-26.85 -69.6,-26.85 -37.62,0 -69.13,15.11 -94.68,45.33 -25.56,30.07 -38.41,69.92 -38.41,119.28l0 260.71 -73.29 0 0 -475.46 68.47 0 0 87.77c38.58,-67.52 88.56,-101.28 149.97,-101.28 35.51,0 65.74,9.17 90.66,27.5 24.9,18.48 41.95,39.05 51.26,62.03 9.16,22.83 13.83,64.31 13.83,124.26l0 275.18zm520.79 0l-73.29 0c-2.9,-15.11 -5.79,-43.72 -8.68,-85.67 -32.63,66.06 -88.25,99.18 -166.85,99.18 -53.37,0 -94.35,-14.15 -122.97,-42.44 -28.61,-28.29 -42.91,-62.37 -42.91,-101.91 0,-48.22 20.41,-87.76 61.24,-118.79 40.82,-30.86 110.27,-46.45 208.32,-46.45 13.17,0 34.23,0.65 63.17,1.93 0,-37.61 -2.89,-64.94 -8.69,-81.66 -5.78,-16.71 -18.16,-30.21 -36.95,-40.18 -18.82,-10.12 -43.58,-15.11 -74.28,-15.11 -75.05,0 -118.63,28.61 -130.84,85.83l-68.47 -11.72c16.56,-87.93 86.63,-131.98 209.92,-131.98 65.58,0 112.03,14.46 139.52,43.56 27.5,29.1 41.15,79.41 41.15,150.93l0 202.22c0,33.6 3.54,64.3 10.61,92.26zm-81.97 -237.25c-30.22,-1.94 -53.05,-2.89 -68.8,-2.89 -58.5,0 -103.84,9.65 -136.31,28.77 -32.3,19.29 -48.55,47.26 -48.55,84.06 0,23.16 8.68,43.09 26.21,59.31 17.36,16.4 42.6,24.6 75.4,24.6 44.67,0 81.32,-16.23 109.93,-48.54 28.78,-32.47 43.08,-70.4 43.08,-114.12 0,-8.84 -0.32,-19.29 -0.96,-31.19zm435.75 187.1l0 58.83c-26.19,3.22 -48.85,4.83 -67.98,4.83 -92.27,0 -138.4,-48.07 -138.4,-144.35l0 -286.76 -83.91 0 0 -57.86 83.91 0 2.89 -119.75 70.41 -6.59 0 126.34 106.08 0 0 57.86 -106.08 0 0 298.81c0,49.02 25.23,73.47 75.86,73.47 16.88,0 36.01,-1.62 57.22,-4.83zm157.85 -593.12l0 81.97 -80.04 0 0 -81.97 80.04 0zm-3.85 167.81l0 475.46 -73.3 0 0 -475.46 73.3 0zm318.1 488.97c-65.26,0 -116.21,-24.28 -152.87,-72.67 -36.48,-48.38 -54.81,-108.49 -54.81,-180.18 0,-75.86 20.57,-136.47 61.73,-181.63 41.15,-45.33 92.26,-68 153.5,-68 65.75,0 117.34,23.8 155.27,71.54 37.78,47.57 56.74,107.05 56.74,178.57 0,74.11 -20.41,134.86 -61.24,181.8 -40.83,47.09 -93.55,70.57 -158.32,70.57zm5.79 -60.76c37.61,0 69.11,-15.59 94.67,-46.78 25.4,-31.18 38.08,-79.73 38.08,-145.63 0,-66.07 -13.33,-114.12 -40.01,-143.86 -26.68,-29.73 -58.03,-44.68 -93.71,-44.68 -36.81,0 -67.83,15.11 -93.39,45.15 -25.4,30.07 -38.09,77.82 -38.09,142.91 0,69.12 12.69,118.47 38.09,148.2 25.56,29.73 56.9,44.69 94.36,44.69zm699.36 47.25l-69.43 0 0 -305.73c0,-43.87 -9.65,-74.9 -28.78,-92.74 -19.12,-17.84 -42.27,-26.85 -69.6,-26.85 -37.61,0 -69.11,15.11 -94.67,45.33 -25.56,30.07 -38.41,69.92 -38.41,119.28l0 260.71 -73.3 0 0 -475.46 68.47 0 0 87.77c38.58,-67.52 88.56,-101.28 149.97,-101.28 35.53,0 65.74,9.17 90.66,27.5 24.91,18.48 41.95,39.05 51.28,62.03 9.15,22.83 13.81,64.31 13.81,124.26l0 275.18zm520.8 0l-73.3 0c-2.89,-15.11 -5.78,-43.72 -8.68,-85.67 -32.63,66.06 -88.24,99.18 -166.85,99.18 -53.36,0 -94.34,-14.15 -122.96,-42.44 -28.61,-28.29 -42.92,-62.37 -42.92,-101.91 0,-48.22 20.42,-87.76 61.24,-118.79 40.84,-30.86 110.27,-46.45 208.32,-46.45 13.18,0 34.24,0.65 63.17,1.93 0,-37.61 -2.9,-64.94 -8.68,-81.66 -5.78,-16.71 -18.16,-30.21 -36.96,-40.18 -18.81,-10.12 -43.56,-15.11 -74.26,-15.11 -75.07,0 -118.63,28.61 -130.84,85.83l-68.48 -11.72c16.56,-87.93 86.64,-131.98 209.93,-131.98 65.57,0 112.03,14.46 139.51,43.56 27.49,29.1 41.15,79.41 41.15,150.93l0 202.22c0,33.6 3.54,64.3 10.61,92.26zm-81.98 -237.25c-30.21,-1.94 -53.05,-2.89 -68.8,-2.89 -58.5,0 -103.82,9.65 -136.3,28.77 -32.32,19.29 -48.54,47.26 -48.54,84.06 0,23.16 8.67,43.09 26.19,59.31 17.36,16.4 42.61,24.6 75.39,24.6 44.68,0 81.35,-16.23 109.95,-48.54 28.77,-32.47 43.08,-70.4 43.08,-114.12 0,-8.84 -0.33,-19.29 -0.97,-31.19zm293.03 237.25l-73.3 0 0 -643.27 73.3 0 0 643.27zm-4934.03 765.46l-81.01 0 0 -643.28 393.49 0 0 70.4 -312.48 0 0 203.49 258.47 0 0 64.62 -258.47 0 0 304.77zm553.76 13.49c-65.27,0 -116.23,-24.26 -152.88,-72.65 -36.48,-48.38 -54.81,-108.49 -54.81,-180.19 0,-75.86 20.58,-136.46 61.73,-181.63 41.15,-45.33 92.27,-67.99 153.5,-67.99 65.74,0 117.34,23.79 155.28,71.52 37.77,47.58 56.73,107.05 56.73,178.59 0,74.1 -20.4,134.85 -61.24,181.79 -40.82,47.1 -93.54,70.56 -158.31,70.56zm5.77 -60.75c37.62,0 69.12,-15.6 94.68,-46.77 25.39,-31.19 38.1,-79.73 38.1,-145.63 0,-66.07 -13.34,-114.13 -40.03,-143.86 -26.67,-29.75 -58.03,-44.7 -93.71,-44.7 -36.81,0 -67.84,15.11 -93.39,45.18 -25.4,30.06 -38.09,77.79 -38.09,142.89 0,69.11 12.69,118.46 38.09,148.2 25.55,29.74 56.91,44.69 94.35,44.69zm495.24 60.75c-65.27,0 -116.21,-24.26 -152.86,-72.65 -36.5,-48.38 -54.82,-108.49 -54.82,-180.19 0,-75.86 20.59,-136.46 61.73,-181.63 41.15,-45.33 92.27,-67.99 153.5,-67.99 65.74,0 117.34,23.79 155.27,71.52 37.78,47.58 56.75,107.05 56.75,178.59 0,74.1 -20.41,134.85 -61.25,181.79 -40.82,47.1 -93.54,70.56 -158.32,70.56zm5.79 -60.75c37.61,0 69.11,-15.6 94.66,-46.77 25.41,-31.19 38.11,-79.73 38.11,-145.63 0,-66.07 -13.35,-114.13 -40.03,-143.86 -26.68,-29.75 -58.02,-44.7 -93.71,-44.7 -36.81,0 -67.83,15.11 -93.38,45.18 -25.4,30.06 -38.1,77.79 -38.1,142.89 0,69.11 12.7,118.46 38.1,148.2 25.55,29.74 56.9,44.69 94.35,44.69zm533.64 -2.89l0 58.83c-26.19,3.21 -48.85,4.81 -67.98,4.81 -92.27,0 -138.4,-48.05 -138.4,-144.33l0 -286.77 -83.91 0 0 -57.86 83.91 0 2.89 -119.75 70.41 -6.59 0 126.34 106.09 0 0 57.86 -106.09 0 0 298.82c0,49.03 25.24,73.45 75.86,73.45 16.88,0 36.01,-1.6 57.22,-4.81zm116.39 50.15l-35.7 0 0 -643.28 73.3 0 0 246.89c33.92,-61.72 80.7,-92.58 140.33,-92.58 54.5,0 100.3,21.54 137.11,64.61 36.81,43.08 55.3,105.78 55.3,187.74 0,70.89 -18.18,130.21 -54.33,178.11 -36.16,48.05 -83.27,72 -141.29,72 -64.62,0 -114.13,-30.86 -148.68,-92.57l-26.04 79.08zm37.6 -186.94c3.55,48.86 18.49,84.38 45,106.57 26.53,22.01 54.5,33.11 83.92,33.11 37.6,0 67.99,-16.4 91.14,-49.03 22.98,-32.79 34.56,-77.63 34.56,-134.53 0,-61.41 -11.1,-109.63 -33.43,-144.84 -22.19,-35.04 -53.22,-52.56 -92.76,-52.56 -31.01,0 -58.98,12.54 -83.91,37.62 -25.06,25.08 -39.86,57.54 -44.52,97.41l0 106.25zm817.04 186.94l-73.3 0c-2.89,-15.11 -5.78,-43.73 -8.68,-85.68 -32.63,66.06 -88.24,99.17 -166.85,99.17 -53.36,0 -94.35,-14.14 -122.96,-42.43 -28.61,-28.29 -42.92,-62.36 -42.92,-101.9 0,-48.23 20.41,-87.77 61.25,-118.8 40.83,-30.85 110.26,-46.45 208.31,-46.45 13.18,0 34.24,0.64 63.17,1.94 0,-37.62 -2.89,-64.94 -8.69,-81.66 -5.78,-16.71 -18.15,-30.22 -36.96,-40.18 -18.81,-10.14 -43.56,-15.11 -74.25,-15.11 -75.08,0 -118.64,28.61 -130.85,85.83l-68.47 -11.74c16.55,-87.93 86.63,-131.96 209.92,-131.96 65.58,0 112.03,14.47 139.52,43.55 27.48,29.1 41.15,79.42 41.15,150.94l0 202.21c0,33.59 3.53,64.29 10.61,92.27zm-81.98 -237.25c-30.21,-1.93 -53.04,-2.9 -68.79,-2.9 -58.52,0 -103.84,9.64 -136.31,28.76 -32.3,19.3 -48.55,47.27 -48.55,84.09 0,23.13 8.68,43.07 26.2,59.3 17.37,16.39 42.6,24.6 75.4,24.6 44.68,0 81.32,-16.25 109.93,-48.55 28.78,-32.47 43.08,-70.4 43.08,-114.12 0,-8.84 -0.31,-19.29 -0.96,-31.18zm293.02 237.25l-73.29 0 0 -643.28 73.29 0 0 643.28zm221.83 0l-73.31 0 0 -643.28 73.31 0 0 643.28zm-2645.76 765.44l-82.3 0 -64.29 -188.06 -239.99 0 -57.86 188.06 -67.19 0 208.97 -643.27 93.06 0 209.6 643.27zm-163.31 -248.81l-100.78 -308.63 -99.83 308.63 200.61 0zm512.92 81.97l66.55 11.73c-9.49,52.73 -30.39,94.04 -62.7,123.94 -32.47,29.73 -72.81,44.68 -121.19,44.68 -65.74,0 -115.89,-24.27 -150.28,-72.66 -34.4,-48.38 -51.61,-107.53 -51.61,-177.44 0,-72.35 18.16,-132.46 54.49,-180.36 36.33,-48.06 85.69,-72 148.36,-72 51.76,0 93.4,15.42 124.74,46.45 31.18,31.02 50.62,71.03 58.19,120.22l-66.55 12.71c-12.53,-79.09 -50.47,-118.63 -113.96,-118.63 -40.83,0 -72.17,17.35 -94.19,52.24 -22.03,34.88 -32.96,79.89 -32.96,135.34 0,61.24 10.93,108.66 32.79,142.57 21.7,33.92 52.4,50.8 91.94,50.8 61.24,0 99.98,-39.87 116.38,-119.59zm539.92 166.84l-73.3 0c-2.9,-15.11 -5.78,-43.71 -8.68,-85.66 -32.63,66.06 -88.24,99.17 -166.85,99.17 -53.36,0 -94.35,-14.15 -122.96,-42.44 -28.61,-28.29 -42.92,-62.37 -42.92,-101.91 0,-48.22 20.41,-87.76 61.24,-118.78 40.84,-30.86 110.27,-46.45 208.32,-46.45 13.19,0 34.24,0.64 63.17,1.92 0,-37.61 -2.89,-64.93 -8.67,-81.66 -5.8,-16.71 -18.17,-30.2 -36.97,-40.18 -18.81,-10.12 -43.57,-15.11 -74.26,-15.11 -75.07,0 -118.63,28.62 -130.84,85.84l-68.48 -11.73c16.55,-87.93 86.63,-131.96 209.92,-131.96 65.59,0 112.04,14.46 139.51,43.55 27.49,29.09 41.17,79.4 41.17,150.94l0 202.2c0,33.6 3.53,64.3 10.6,92.26zm-81.98 -237.24c-30.22,-1.93 -53.04,-2.9 -68.8,-2.9 -58.51,0 -103.83,9.65 -136.3,28.78 -32.31,19.29 -48.54,47.25 -48.54,84.06 0,23.15 8.67,43.08 26.19,59.32 17.36,16.4 42.61,24.59 75.4,24.59 44.67,0 81.32,-16.24 109.94,-48.54 28.77,-32.48 43.08,-70.41 43.08,-114.13 0,-8.84 -0.33,-19.29 -0.97,-31.18zm591.04 -406.03l0 643.27 -66.55 0 0 -81.01c-33.27,63.01 -83.43,94.52 -150.45,94.52 -55.62,0 -101.43,-23.31 -137.27,-70.08 -35.84,-46.61 -53.69,-105.77 -53.69,-177.14 0,-72.97 17.68,-133.72 53.21,-182.44 35.52,-48.54 82.79,-72.8 141.45,-72.8 57.22,0 103.83,26.03 140.01,78.1l0 -232.42 73.29 0zm-73.29 351.05c0,-41.63 -12.7,-75.06 -38.26,-100.3 -25.4,-25.07 -55.15,-37.61 -89.06,-37.61 -36.8,0 -67.01,16.4 -90.81,49.02 -23.64,32.8 -35.53,78.77 -35.53,137.92 0,63.97 10.94,112.51 32.8,145.95 21.86,33.27 51.76,49.99 89.84,49.99 34.57,0 64.96,-14.47 91.47,-43.41 26.36,-28.91 39.55,-63 39.55,-101.89l0 -99.67zm535.73 151.42l68.48 14.14c-12.54,40.51 -37.14,73.94 -73.46,100.47 -36.49,26.52 -79.41,39.7 -128.75,39.7 -65.1,0 -117.66,-22.82 -158,-68.64 -40.19,-45.81 -60.29,-105.76 -60.29,-180.03 0,-75.71 20.9,-137.11 62.69,-183.72 41.79,-46.77 94.19,-70.07 157.37,-70.07 62.05,0 112.18,21.53 149.96,64.76 37.77,43.08 57.23,107.7 58.19,193.7l-346.23 0c0,71.85 15.11,120.39 45.33,145.63 30.38,25.07 62.37,37.61 96.12,37.61 60.76,0 103.67,-31.18 128.59,-93.55zm-4.82 -144.67c-0.64,-26.84 -4.98,-50.63 -13.18,-71.36 -8.2,-20.89 -22.18,-38.58 -41.63,-53.21 -19.61,-14.63 -43.08,-22.02 -70.4,-22.02 -36.98,0 -68.15,13.18 -93.87,39.7 -25.73,26.53 -40.03,62.06 -43.25,106.89l262.33 0zm828.92 285.47l-73.3 0 0 -295.75c0,-30.54 -2.07,-53.37 -6.25,-68.64 -4.35,-15.11 -14.48,-29.08 -30.72,-41.79 -16.23,-12.7 -34.55,-19.12 -54.8,-19.12 -28.13,0 -55.13,13.02 -81.33,38.88 -26.05,25.89 -39.07,65.44 -39.07,118.47l0 267.95 -71.35 0 0 -312.95c0,-41.63 -9.97,-71.2 -29.91,-88.4 -19.93,-17.2 -40.82,-25.89 -62.68,-25.89 -31.35,0 -58.67,13.51 -81.82,40.52 -23.31,26.83 -34.88,61.07 -34.88,102.38l0 284.34 -70.41 0 0 -475.46 63.66 0 0 91.31c35.35,-69.94 84.06,-104.8 145.94,-104.8 34.07,0 63.01,11.24 86.8,33.58 23.79,22.35 39.07,49.19 45.98,80.7 32.63,-76.19 82.78,-114.28 150.45,-114.28 32.3,0 60.6,9.32 85.03,27.8 24.27,18.49 40.18,39.86 47.58,63.81 7.39,23.96 11.08,57.87 11.08,101.59l0 295.75zm456.51 -475.46l-191.13 531.4c-27.65,76.51 -71.68,114.78 -132.29,114.78 -19.29,0 -40.34,-3.23 -63.64,-9.65l0 -57.87c19.12,4.5 35.51,6.75 49.35,6.75 23.62,0 43.23,-6.75 58.98,-20.42 15.92,-13.65 31.99,-46.45 48.07,-98.21l-165.24 -466.78 75.54 0 127.95 358.29 128.91 -358.29 63.5 0z"/>
 </g>
</svg>
