<?xml version="1.0" encoding="UTF-8"?>
<!DOCTYPE svg PUBLIC "-//W3C//DTD SVG 1.1//EN" "http://www.w3.org/Graphics/SVG/1.1/DTD/svg11.dtd">
<!-- Creator: CorelDRAW -->
<svg xmlns="http://www.w3.org/2000/svg" xml:space="preserve" width="6.8898mm" height="12.2948mm" version="1.1" style="shape-rendering:geometricPrecision; text-rendering:geometricPrecision; image-rendering:optimizeQuality; fill-rule:evenodd; clip-rule:evenodd"
viewBox="0 0 47.56 84.87"
 xmlns:xlink="http://www.w3.org/1999/xlink"
 xmlns:xodm="http://www.corel.com/coreldraw/odm/2003">
 <defs>
  <style type="text/css">
   <![CDATA[
    .fil0 {fill:white;fill-rule:nonzero}
   ]]>
  </style>
 </defs>
 <g id="Capa_x0020_1">
  <metadata id="CorelCorpID_0Corel-Layer"/>
  <path class="fil0" d="M24.89 68.28l22.67 -15.1 0 -42.53 -8.43 0 0 38.01 -14.24 9.48 0 10.13zm-2.31 12.52l1.2 4.07 1.2 -4.07 3.73 2.03 -2.03 -3.73 4.07 -1.2 -4.07 -1.2 2.03 -3.73 -3.73 2.03 -1.2 -4.07 -1.2 4.07 -3.73 -2.03 2.03 3.73 -4.07 1.2 4.07 1.2 -2.03 3.73 3.73 -2.03zm4.72 -56.05l9.73 0 0 8.43 -9.73 0 0 19.99 -8.43 0 0 -53.18 8.43 0 0 24.75zm2.22 -16.32l0 -8.43 18.05 0 0 8.43 -18.05 0zm-29.51 -8.43l8.43 0 0 48.66 14.24 9.48 0 10.13 -22.67 -15.1 0 -53.18z"/>
 </g>
</svg>
