<?xml version="1.0" encoding="UTF-8"?>
<!DOCTYPE svg PUBLIC "-//W3C//DTD SVG 1.1//EN" "http://www.w3.org/Graphics/SVG/1.1/DTD/svg11.dtd">
<!-- Creator: CorelDRAW -->
<svg xmlns="http://www.w3.org/2000/svg" xml:space="preserve" width="140.756mm" height="140.723mm" version="1.1" style="shape-rendering:geometricPrecision; text-rendering:geometricPrecision; image-rendering:optimizeQuality; fill-rule:evenodd; clip-rule:evenodd"
viewBox="0 0 2327.1 2326.55"
 xmlns:xlink="http://www.w3.org/1999/xlink"
 xmlns:xodm="http://www.corel.com/coreldraw/odm/2003">
 <defs>
  <style type="text/css">
   <![CDATA[
    .fil0 {fill:none}
    .fil1 {fill:#AB6257;fill-rule:nonzero}
   ]]>
  </style>
 </defs>
 <g id="Capa_x0020_1">
  <metadata id="CorelCorpID_0Corel-Layer"/>
  <circle class="fil0" cx="1164.76" cy="1162.57" r="978.72"/>
  <path class="fil1" d="M1158.03 2143.34l-13.66 183.17 -137.87 -10.48 2.06 -34.06 96.79 7.36 8.23 -115.14 -99.41 -7.56 2.33 -34.04 141.54 10.76zm-44.3 73.71l-2.75 32.69 -88.13 -6.97 2.49 -32.71 88.39 6.98z"/>
  <polygon id="_1" class="fil1" points="1004.11,2134.32 898.41,2217.49 906.87,2187.7 950.65,2310.08 904.19,2296.89 874.14,2211.69 893.65,2216.96 823.95,2274.1 779.51,2261.48 880.11,2182.01 871.79,2211.29 825.4,2083.57 872.61,2096.98 903.34,2186.69 884.65,2181.39 957.15,2120.99 "/>
  <path id="_2" class="fil1" d="M809.48 2075.99l-75.67 167.37 -72.42 -32.74c-14.99,-6.78 -26.8,-15.04 -35.45,-24.81 -8.64,-9.76 -13.86,-20.52 -15.65,-32.28 -1.79,-11.75 0.16,-23.93 5.86,-36.52 5.62,-12.44 13.44,-21.86 23.45,-28.29 10.01,-6.42 21.51,-9.57 34.55,-9.53 13.04,0.04 27.05,3.45 42.04,10.22l50.9 23.01 -25.09 9.63 28.74 -63.58 38.74 17.52zm-65.56 41.79l8.91 26.16 -48.75 -22.04c-11.96,-5.41 -22.04,-6.89 -30.25,-4.46 -8.21,2.44 -14.36,8.2 -18.47,17.29 -4.18,9.25 -4.48,17.76 -0.88,25.53 3.59,7.77 11.37,14.36 23.33,19.76l48.75 22.04 -25.54 10.63 42.91 -94.91z"/>
  <path id="_3" class="fil1" d="M640.25 1990.3l-106.23 149.84 -112.68 -80.13 19.35 -28.11 79.1 56.25 66.47 -94.38 -81.24 -57.77 19.56 -27.96 115.68 82.26zm-75.98 40.28l-19.23 26.58 -71.89 -51.45 19.01 -26.74 72.11 51.6z"/>
  <path id="_4" class="fil1" d="M500.35 1883.64l-132.94 126.75 -54.12 -56.77c-17.63,-18.49 -27.06,-36.94 -28.29,-55.35 -1.23,-18.41 5.69,-34.8 20.76,-49.16 9.88,-9.42 20.63,-15.19 32.25,-17.33 11.62,-2.13 23.41,-0.68 35.42,4.31 12.01,4.99 23.69,13.44 35.04,25.34l38.55 40.43 -26.5 -0.85 50.5 -48.15 29.34 30.77zm-80.57 -84.5l-16.52 79.22 -31.33 -32.86 16.16 -79.6 31.7 33.24zm4.12 98.64l-1.37 27.41 -36.92 -38.72c-9.06,-9.5 -17.87,-14.63 -26.46,-15.39 -8.58,-0.76 -16.48,2.3 -23.7,9.18 -7.34,7 -10.81,14.78 -10.39,23.33 0.41,8.55 5.15,17.57 14.21,27.07l36.92 38.72 -27.66 0.27 75.38 -71.87z"/>
  <polygon id="_5" class="fil1" points="373.6,1738.49 223.91,1844.94 199.27,1810.29 348.96,1703.84 "/>
  <path id="_6" class="fil1" d="M323.91 1667.65l-163.36 83.96 -63.03 -123.07 30.13 -16.02 44.25 86.39 102.51 -53.09 -45.44 -88.73 30.25 -15.79 64.7 126.34zm-85.99 0.69l-29.32 14.72 -40.06 -78.8 29.2 -14.96 40.19 79.04z"/>
  <polygon id="_7" class="fil1" points="245.95,1509.65 69.26,1559.83 59.65,1526 157.26,1385.64 162.1,1401.73 34.71,1438.18 23.24,1397.78 199.93,1347.6 209.47,1381.18 111.93,1521.79 107.02,1505.45 234.48,1469.25 "/>
  <path id="_8" class="fil1" d="M190.7 1216.05c1.07,14.13 -0.24,27.44 -3.94,39.92 -3.7,12.43 -9.49,23.45 -17.36,32.99 -7.87,9.55 -17.38,17.24 -28.51,23.09 -11.14,5.85 -23.55,9.29 -37.34,10.34 -13.78,1.05 -26.62,-0.48 -38.51,-4.57 -11.89,-4.1 -22.45,-10.31 -31.69,-18.65 -9.23,-8.33 -16.62,-18.35 -22.15,-29.99 -5.54,-11.69 -8.85,-24.68 -9.94,-38.99 -1.21,-15.88 0.45,-30.44 4.97,-43.68 4.52,-13.24 11.77,-24.63 21.75,-34.16l27.19 25.31c-6.68,6.82 -11.51,14.21 -14.5,22.16 -2.99,7.95 -4.14,16.46 -3.45,25.53 0.65,8.55 2.64,16.29 5.98,23.24 3.33,6.94 7.82,12.83 13.45,17.67 5.63,4.79 12.13,8.38 19.5,10.71 7.37,2.34 15.42,3.17 24.14,2.51 8.72,-0.66 16.55,-2.71 23.49,-6.13 6.89,-3.42 12.78,-7.95 17.62,-13.54 4.84,-5.63 8.38,-12.13 10.63,-19.5 2.25,-7.37 3.05,-15.32 2.4,-23.87 -0.69,-9.07 -3.11,-17.31 -7.27,-24.72 -4.16,-7.4 -10.14,-13.97 -17.95,-19.69l23.06 -29.13c11.31,7.91 20.24,18.07 26.8,30.47 6.56,12.4 10.45,26.62 11.67,42.67z"/>
  <polygon id="_9" class="fil1" points="187.16,1114.19 4.01,1100.26 7.23,1057.86 190.38,1071.79 "/>
  <path id="_10" class="fil1" d="M186.08 1051.29l-160.57 -121.05 9.44 -40.92 197.44 -38.7 -10.02 43.43 -173.11 29 3.78 -16.37 142.84 102.14 -9.8 42.45zm-29.15 -48.75l-28.87 -18.25 21.24 -92.02 34.01 -4 -26.37 114.27z"/>
  <path id="_11" class="fil1" d="M259.6 713.97l-107.77 -54.9 15.53 -29.74 107.77 54.9 -15.53 29.74zm-60.37 20.1l-28.39 -14.24 57.04 -110.8 28.39 14.24 -57.04 110.8z"/>
  <path id="_12" class="fil1" d="M387.78 565.12l-139.01 -120.06 90.53 -104.52 26.14 21.94 -63.21 72.97 113.22 97.72 -27.67 31.94zm-25.32 -73.32l-25.42 -22.36 57.91 -66.45 25.59 22.17 -58.08 66.65z"/>
  <path id="_13" class="fil1" d="M570.06 389.12c-11.14,8.76 -23,15.12 -35.56,19.1 -12.53,3.95 -25,5.35 -37.39,4.18 -12.38,-1.17 -24.06,-4.85 -35.03,-11.02 -10.94,-6.14 -20.66,-14.47 -29.12,-24.96 -8.43,-10.73 -14.23,-22.14 -17.39,-34.23 -3.16,-12.09 -3.87,-24.33 -2.14,-36.7 1.73,-12.38 5.96,-24.21 12.63,-35.46 6.71,-11.28 15.69,-21.23 26.94,-29.85 11.45,-9.22 23.41,-15.73 35.89,-19.53 12.48,-3.8 24.91,-5.11 37.29,-3.94 12.38,1.17 24.04,4.75 35.04,10.68 11,5.93 20.7,14.38 29.11,25.36 8.57,10.62 14.46,22.01 17.73,34.24 3.27,12.23 4.02,24.44 2.17,36.68 -1.84,12.24 -6.08,23.97 -12.73,35.2 -6.64,11.23 -15.8,21.31 -27.46,30.26zm-22.05 -28.07c6.49,-5.33 11.63,-11.25 15.4,-17.78 3.77,-6.53 6.07,-13.45 6.88,-20.76 0.82,-7.32 0.14,-14.69 -1.99,-22.08 -2.16,-7.42 -5.88,-14.63 -11.15,-21.62 -5.54,-6.77 -11.67,-12.08 -18.37,-15.94 -6.7,-3.86 -13.71,-6.26 -21.01,-7.19 -7.3,-0.94 -14.59,-0.38 -21.88,1.68 -7.29,2.05 -14.23,5.68 -20.84,10.87 -6.22,5.11 -11.22,10.93 -14.99,17.46 -3.77,6.53 -6.07,13.45 -6.88,20.76 -0.78,7.29 -0.13,14.63 1.98,21.98 2.11,7.36 5.85,14.6 11.23,21.72 5.43,6.63 11.53,11.91 18.29,15.84 6.73,3.89 13.76,6.32 21.03,7.29 7.3,0.94 14.56,0.41 21.78,-1.59 7.22,-2 14.06,-5.54 20.53,-10.62z"/>
  <path id="_14" class="fil1" d="M676.7 309.18l-75.67 -167.37 71.47 -32.31c23.28,-10.52 43.81,-13.32 61.58,-8.4 17.78,4.92 30.96,16.87 39.54,35.84 5.62,12.44 7.52,24.49 5.69,36.17 -1.83,11.67 -7.1,22.31 -15.78,32 -8.68,9.68 -20.51,17.92 -35.5,24.69l-50.9 23.01 9.56 -24.72 28.74 63.57 -38.74 17.52zm106.38 -48.1l-69.3 -41.78 41.37 -18.71 69.78 41.57 -41.85 18.92zm-94.45 -28.73l-25.42 -10.35 48.75 -22.04c11.96,-5.41 19.72,-12.03 23.27,-19.88 3.56,-7.85 3.28,-16.32 -0.83,-25.4 -4.18,-9.25 -10.37,-15.09 -18.58,-17.52 -8.21,-2.43 -18.29,-0.95 -30.25,4.46l-48.75 22.04 8.89 -26.2 42.91 94.9z"/>
  <polygon id="_15" class="fil1" points="853.23,230.11 811.92,51.14 846.19,43.23 951.51,151.94 933.35,156.13 979.13,12.55 1013.1,4.71 1054.92,183.56 1016.09,192.52 988.28,73.2 995.44,71.54 958.79,185.82 940.12,190.12 855.85,103.76 864.55,101.75 892.1,221.14 "/>
  <path id="_16" class="fil1" d="M1075.44 181.59l86.46 -181.55 41.98 1.06 77.44 185.69 -44.56 -1.13 -63.07 -163.8 16.79 0.42 -71.48 160.4 -43.56 -1.1zm41.93 -38.32l12.1 -31.94 94.41 2.39 10.73 32.52 -117.24 -2.96z"/>
  <path id="_17" class="fil1" d="M1383.26 211.87c-13.81,-3.19 -26.12,-8.41 -36.92,-15.66 -10.76,-7.24 -19.55,-16.05 -26.32,-26.41 -6.77,-10.36 -11.28,-21.73 -13.54,-34.1 -2.26,-12.37 -1.85,-25.25 1.26,-38.72 3.11,-13.47 8.39,-25.27 15.85,-35.4 7.45,-10.13 16.54,-18.36 27.25,-24.69 10.71,-6.33 22.46,-10.39 35.23,-12.21 12.8,-1.8 26.2,-1.09 40.18,2.13 15.51,3.58 28.92,9.5 40.21,17.77 11.29,8.26 20,18.58 26.12,30.94l-32.26 18.41c-4.53,-8.41 -10.13,-15.22 -16.83,-20.45 -6.7,-5.23 -14.48,-8.86 -23.34,-10.91 -8.35,-1.93 -16.34,-2.33 -23.96,-1.22 -7.62,1.11 -14.58,3.64 -20.87,7.57 -6.25,3.94 -11.61,9.08 -16.04,15.42 -4.43,6.34 -7.62,13.77 -9.59,22.3 -1.97,8.53 -2.35,16.61 -1.15,24.25 1.21,7.6 3.78,14.57 7.67,20.85 3.93,6.3 9.08,11.61 15.44,15.95 6.36,4.34 13.72,7.48 22.07,9.4 8.86,2.05 17.45,2.19 25.76,0.42 8.31,-1.76 16.36,-5.52 24.15,-11.26l20.93 30.69c-10.92,8.43 -23.28,13.93 -37.07,16.49 -13.79,2.56 -28.53,2.04 -44.21,-1.58z"/>
  <polygon id="_18" class="fil1" points="1482.47,235.83 1549.84,64.95 1589.4,80.55 1522.03,251.42 "/>
  <path id="_19" class="fil1" d="M1640.05 310.35c-12.29,-7.06 -22.62,-15.68 -31,-25.85 -8.35,-10.15 -14.31,-21.19 -17.84,-33.12 -3.54,-11.92 -4.49,-24.13 -2.86,-36.62 1.61,-12.45 5.71,-24.57 12.27,-36.34 6.8,-11.83 15.22,-21.47 25.26,-28.92 10.04,-7.45 21.12,-12.68 33.25,-15.7 12.13,-3.02 24.68,-3.52 37.62,-1.53 12.97,2.01 25.56,6.62 37.76,13.84 12.83,7.18 23.34,15.84 31.52,26 8.19,10.16 14.05,21.2 17.59,33.12 3.54,11.93 4.57,24.08 3.18,36.5 -1.39,12.42 -5.61,24.58 -12.65,36.47 -6.65,11.92 -15.02,21.64 -25.14,29.24 -10.12,7.6 -21.17,12.85 -33.21,15.72 -12.04,2.87 -24.51,3.31 -37.41,1.35 -12.9,-1.97 -25.67,-6.69 -38.33,-14.17zm17.79 -30.94c7.37,4.03 14.78,6.59 22.25,7.64 7.46,1.06 14.74,0.61 21.83,-1.37 7.09,-1.98 13.68,-5.35 19.74,-10.1 6.08,-4.78 11.37,-10.92 15.89,-18.41 4.21,-7.67 6.85,-15.34 7.92,-22.99 1.07,-7.66 0.68,-15.05 -1.18,-22.17 -1.86,-7.12 -5.1,-13.68 -9.73,-19.67 -4.63,-5.99 -10.58,-11.08 -17.86,-15.27 -7.06,-3.86 -14.33,-6.32 -21.79,-7.38 -7.46,-1.06 -14.74,-0.61 -21.83,1.37 -7.05,2 -13.62,5.34 -19.65,10.04 -6.04,4.71 -11.35,10.88 -15.95,18.53 -4.12,7.52 -6.74,15.15 -7.86,22.88 -1.09,7.7 -0.72,15.12 1.1,22.23 1.86,7.12 5.06,13.66 9.61,19.61 4.55,5.95 10.39,10.97 17.52,15.07zm62.17 -155.49l49.55 -15.1 38.23 21.98 -60.02 9.08 -27.76 -15.96z"/>
  <polygon id="_20" class="fil1" points="1754.11,378.58 1874.37,239.75 1900.96,262.77 1896.27,433.67 1883.41,422.87 1969.96,322.55 2001.7,350.04 1881.44,488.88 1855.05,466.02 1859.54,294.96 1872.6,305.93 1785.85,406.08 "/>
  <path id="_21" class="fil1" d="M2003.15 598.84l101.68 -65.5 17.89 28.39 -101.68 65.5 -17.89 -28.39zm13.02 -62.28l26.59 -17.36 67.04 105.06 -26.59 17.36 -67.04 -105.06z"/>
  <path id="_22" class="fil1" d="M2069.56 783.13l173.99 -58.87 25.48 75.29c5.27,15.58 7.29,29.86 6.04,42.84 -1.24,12.98 -5.55,24.13 -12.92,33.46 -7.37,9.33 -17.6,16.21 -30.7,20.64 -12.93,4.37 -25.15,5.09 -36.67,2.16 -11.52,-2.94 -21.68,-9.2 -30.54,-18.76 -8.87,-9.56 -15.94,-22.13 -21.21,-37.71l-17.9 -52.91 24.16 11.77 -66.09 22.36 -13.63 -40.28zm75.28 19.41l13.04 -24.36 17.15 50.67c4.21,12.43 10,20.81 17.38,25.15 7.38,4.34 15.79,4.91 25.24,1.71 9.61,-3.25 16.04,-8.84 19.26,-16.77 3.23,-7.93 2.74,-18.11 -1.47,-30.54l-17.15 -50.67 25.2 11.42 -98.66 33.38z"/>
  <path id="_23" class="fil1" d="M2125.94 964.26l182.21 -23.16 9.89 77.81c3.22,25.34 -0.13,45.79 -10.06,61.34 -9.93,15.55 -25.22,24.64 -45.88,27.26 -13.54,1.72 -25.62,-0.01 -36.24,-5.18 -10.62,-5.18 -19.24,-13.34 -25.95,-24.48 -6.71,-11.14 -11.1,-24.87 -13.17,-41.19l-7.04 -55.41 20.83 16.4 -69.21 8.8 -5.36 -42.18zm14.72 115.82l60.3 -53.96 5.72 45.04 -60.23 54.48 -5.79 -45.56zm55.21 -81.85l17.36 -21.25 6.74 53.07c1.65,13.02 5.71,22.38 12.17,28.09 6.46,5.71 14.63,7.93 24.53,6.67 10.07,-1.28 17.47,-5.48 22.21,-12.61 4.74,-7.13 6.28,-17.2 4.63,-30.22l-6.74 -53.07 22.43 16.2 -103.32 13.13z"/>
  <path id="_24" class="fil1" d="M2136.91 1244.56c1.07,-14.13 4.39,-27.17 9.95,-39.12 5.56,-11.91 12.95,-22.05 22.18,-30.38 9.23,-8.34 19.83,-14.46 31.8,-18.38 11.92,-3.92 24.63,-5.45 38.08,-4.6 13.61,1.03 25.94,4.47 36.99,10.31 11.05,5.84 20.55,13.58 28.5,23.22 7.95,9.64 13.82,20.75 17.6,33.28 3.78,12.57 5.05,25.92 3.8,40.03 -0.94,14.67 -4.23,27.89 -9.86,39.65 -5.63,11.77 -13.06,21.82 -22.3,30.15 -9.23,8.34 -19.75,14.51 -31.55,18.61 -11.81,4.1 -24.59,5.54 -38.36,4.32 -13.62,-0.86 -26,-4.21 -37.23,-10.07 -11.22,-5.86 -20.73,-13.55 -28.51,-23.18 -7.78,-9.63 -13.56,-20.68 -17.35,-33.17 -3.79,-12.48 -5.04,-26.05 -3.75,-40.69zm35.59 2.71c-0.46,8.39 0.44,16.18 2.7,23.37 2.26,7.19 5.81,13.56 10.66,19.1 4.84,5.55 10.73,10.03 17.62,13.45 6.93,3.42 14.76,5.55 23.47,6.39 8.74,0.49 16.79,-0.43 24.16,-2.77 7.37,-2.33 13.87,-5.88 19.5,-10.63 5.63,-4.75 10.14,-10.5 13.55,-17.26 3.41,-6.76 5.43,-14.33 6.07,-22.7 0.43,-8.04 -0.48,-15.65 -2.74,-22.85 -2.26,-7.19 -5.81,-13.56 -10.66,-19.1 -4.85,-5.5 -10.69,-9.98 -17.54,-13.4 -6.85,-3.42 -14.71,-5.55 -23.6,-6.4 -8.56,-0.48 -16.57,0.45 -24.03,2.78 -7.41,2.33 -13.96,5.87 -19.58,10.58 -5.62,4.75 -10.14,10.46 -13.54,17.13 -3.4,6.67 -5.41,14.11 -6.04,22.31z"/>
  <polygon id="_25" class="fil1" points="2111.09,1412.7 2183.26,1433.2 2155.91,1435.53 2307.21,1394.5 2294.87,1437.93 2178.74,1469.29 2185.84,1444.3 2268.07,1532.32 2256.67,1572.46 2149.52,1458 2171.64,1474.1 2099.48,1453.61 "/>
  <path id="_26" class="fil1" d="M2072.82 1536.41l163.61 83.49 -63.03 123.07 -30.61 -15.08 44.25 -86.4 -102.98 -52.15 -45.44 88.73 -30.49 -15.32 64.7 -126.34zm50.82 69.37l29.08 15.19 -40.53 78.57 -29.2 -14.95 40.65 -78.8z"/>
  <path id="_27" class="fil1" d="M1935.4 1760.42c8.76,-11.14 18.72,-20.06 29.87,-26.76 11.13,-6.66 22.84,-10.87 35.1,-12.59 12.25,-1.72 24.46,-0.97 36.62,2.24 12.16,3.21 23.64,9.06 34.51,17.61 10.87,8.54 19.3,18.34 25.3,29.4 6,11.06 9.58,22.77 10.76,35.16 1.17,12.38 -0.15,24.75 -3.93,37.08 -3.81,12.36 -10.15,24.18 -19.02,35.46 -9.84,12.52 -20.9,22.13 -33.18,28.84 -12.28,6.71 -25.32,10.2 -39.12,10.49l-2.94 -37.03c9.53,-0.52 18.09,-2.7 25.66,-6.54 7.58,-3.84 14.18,-9.33 19.8,-16.49 5.3,-6.74 9.06,-13.8 11.29,-21.17 2.23,-7.37 2.9,-14.74 2.02,-22.11 -0.91,-7.34 -3.28,-14.37 -7.14,-21.08 -3.86,-6.7 -9.22,-12.76 -16.1,-18.16 -6.88,-5.41 -14.03,-9.19 -21.45,-11.35 -7.39,-2.14 -14.79,-2.77 -22.13,-1.93 -7.37,0.88 -14.37,3.28 -21.01,7.19 -6.63,3.91 -12.6,9.24 -17.9,15.98 -5.62,7.15 -9.4,14.86 -11.34,23.13 -1.94,8.27 -1.96,17.15 -0.07,26.65l-36.68 5.89c-2.99,-13.47 -2.71,-27 0.83,-40.57 3.54,-13.57 10.29,-26.68 20.24,-39.34z"/>
  <polygon id="_28" class="fil1" points="1871.85,1840.3 1998.59,1973.24 1967.82,2002.58 1841.07,1869.64 "/>
  <path id="_29" class="fil1" d="M1738.06 1952.05c11.55,-8.21 23.69,-14.01 36.43,-17.38 12.7,-3.34 25.23,-4.15 37.54,-2.38 12.31,1.76 23.8,5.99 34.47,12.69 10.64,6.66 19.95,15.44 27.9,26.32 7.91,11.12 13.15,22.8 15.73,35.03 2.58,12.23 2.7,24.49 0.38,36.77 -2.32,12.28 -7.11,23.9 -14.32,34.82 -7.24,10.95 -16.69,20.46 -28.34,28.53 -11.88,8.66 -24.14,14.59 -36.79,17.79 -12.65,3.2 -25.13,3.91 -37.44,2.15 -12.31,-1.76 -23.79,-5.9 -34.49,-12.35 -10.71,-6.45 -19.99,-15.36 -27.86,-26.73 -8.05,-11.02 -13.39,-22.68 -16.07,-35.05 -2.68,-12.37 -2.84,-24.6 -0.41,-36.74 2.43,-12.14 7.22,-23.66 14.4,-34.55 7.17,-10.9 16.8,-20.53 28.88,-28.91zm20.69 29.09c-6.74,5.01 -12.16,10.68 -16.24,17.02 -4.08,6.34 -6.71,13.14 -7.87,20.41 -1.17,7.27 -0.84,14.66 0.93,22.15 1.81,7.52 5.17,14.89 10.1,22.13 5.21,7.03 11.07,12.63 17.58,16.8 6.51,4.17 13.39,6.9 20.64,8.19 7.25,1.29 14.56,1.08 21.94,-0.63 7.38,-1.7 14.49,-4.99 21.33,-9.86 6.46,-4.81 11.73,-10.38 15.81,-16.72 4.08,-6.34 6.7,-13.14 7.87,-20.41 1.13,-7.24 0.83,-14.6 -0.92,-22.05 -1.75,-7.45 -5.15,-14.86 -10.17,-22.23 -5.11,-6.89 -10.95,-12.45 -17.51,-16.7 -6.54,-4.21 -13.44,-6.98 -20.65,-8.29 -7.25,-1.29 -14.52,-1.1 -21.83,0.55 -7.31,1.65 -14.31,4.86 -21.01,9.63zm115.33 121.42l-6.97 51.33 -35.93 25.55 16.81 -58.33 26.09 -18.55z"/>
  <polygon id="_30" class="fil1" points="1628.33,2027.03 1703.99,2194.4 1671.95,2208.89 1518.74,2133.03 1533.94,2125.87 1588.76,2246.5 1550.5,2263.8 1474.83,2096.43 1506.64,2082.05 1660.08,2157.8 1644.64,2165.07 1590.06,2044.33 "/>
  <path id="_31" class="fil1" d="M1323.51 2160.53l15.51 119.95 -33.32 3.97 -15.51 -119.95 33.32 -3.97zm50.66 38.5l4.26 31.47 -123.66 15.45 -4.26 -31.47 123.66 -15.45z"/>
 </g>
</svg>
